<svg xmlns="http://www.w3.org/2000/svg" data-name="Layer 1" viewBox="0 0 1080 1080"><path fill="#e6edfa" d="M942.68,596.73c-.72,4.92-1.33,7.98-1.48,8.68a208.775,208.775,0,0,1-18.1,51.03v.01q-3.51,6.945-7.51,13.69a261.882,261.882,0,0,1-26.61,36.95q-9.045,10.575-19.28,20.5c-29.54,28.74-65.93,53.32-105.86,73.2q-11.25,5.61-22.86,10.7a574.257,574.257,0,0,1-75.46,26.97q-7.995,2.25-16.02,4.26c-9.29,2.34-18.62,4.44-27.93,6.29q-18.87,3.765-37.6,6.2c-15.97,2.08-31.8,3.4-47.32,3.97a538.616,538.616,0,0,1-55.58-.94c-9.49-.62-19.12-1.5-28.83-2.63a.085.085,0,0,1-.07,0q-12.915-1.485-26-3.56c-2.38-.38-4.76-.78-7.15-1.18-16.15-2.77-32.35-6.23-48.38-10.4-.29-.07-.58-.14-.87-.23a4.209,4.209,0,0,1-.48-.12q-.675-.165-1.35-.36c-14.28-3.78-28.39-8.13-42.19-13.07-9.71-3.47-19.27-7.24-28.6-11.31q-6.66-2.895-13.15-6-5.94-2.835-11.74-5.85c-22.81-11.84-43.79-25.69-61.92-41.65a231.737,231.737,0,0,1-23.02-23.27,191.362,191.362,0,0,1-27.17-41.34,172.869,172.869,0,0,1-9.06-22.78q-1.545-4.845-2.83-9.86a210.678,210.678,0,0,1-6.32-46.62q-.15-5.655,0-11.36a217.931,217.931,0,0,1,4.55-39.38c7.19-34.15,22.9-65.74,48.07-86.81,43.34-36.3,110.25-37.62,151.7-34.16,16.15,1.35,28.44,3.42,33.96,4.44,8.21,1.51,16.25,3.38,24.38,5.34,30.13,7.25,61.53,15.63,107.25,10.49,4.76-.54,21.35-2.54,51.72-10.99a448.98,448.98,0,0,0,66.31-23.71c.96-.44,1.91-.87,2.85-1.3,2.43-1.13,4.77-2.24,7.06-3.35.58-.28,1.17-.57,1.74-.85,4.61-2.26,8.96-4.49,13.12-6.67h.02c.15-.08.29-.16.44-.24.57-.3,1.13-.59,1.69-.89a.827.827,0,0,0,.16-.09c6.06-3.19,11.75-6.28,17.31-9.21,1.15-.61,2.3-1.21,3.44-1.8.8-.41,1.6-.83,2.4-1.23.55-.28,1.1-.56,1.64-.84h.01c3.34-1.68,6.66-3.3,10.05-4.84,5.27-2.41,10.68-4.63,16.44-6.63,4.54-1.59,9.29-3.03,14.37-4.32,50.36-12.81,125.67-8.72,173.58,35.62,39.02,36.13,48.44,88.39,49.18,127.37A277.126,277.126,0,0,1,942.68,596.73Z"/><path fill="#d8dff3" d="M621.566,569.17V849.01a533.833,533.833,0,0,1-84.92,10.17c-73.02,2.67-163.61-10.73-239.5-43.79a389.493,389.493,0,0,1-36.87-18.36c-.01,0-.01-.01-.02-.01q-10.845-6.165-21.01-12.98-9.285-6.225-17.91-13.01-5.655-4.47-11-9.17c-27.44-24.15-48.37-53.14-59.25-87.37-1.02-3.23-1.97-6.51-2.82-9.85a210.252,210.252,0,0,1-6.33-46.62V606.65a217.822,217.822,0,0,1,4.55-39.37h73.3V668.35h12.55V466.83h77.85V770.05H357.9V519.57l185.83,92.91V569.17a36.419,36.419,0,0,1,36.42-36.42h5A36.419,36.419,0,0,1,621.566,569.17Z"/><path fill="#d8dff3" d="M942.675,566.965v29.771c-.712,4.913-1.323,7.972-1.473,8.674C916.065,723.974,785.6,808.561,649.5,842.725V496.966h77.843V758.122H739.9V601.456l77.842-34.18v-.311a62.465,62.465,0,1,1,124.929,0Z"/><path fill="#bdcfd3" d="M915.593,670.137a261.62,261.62,0,0,1-26.615,36.95V685c0-8.213,11.245-14.867,25.121-14.867Z"/><path fill="#cad4ef" d="M426.171,852.046q-3.569-.562-7.147-1.179A559.013,559.013,0,0,1,325.752,826.7L371.237,704.67Z"/><path fill="#cad4ef" d="M284,809.385c-38.074-18.178-71.762-41.611-96.679-70.776l35.15-94.3Z"/><path fill="#cad4ef" d="M923.1,656.448q-3.5,6.951-7.506,13.688a261.765,261.765,0,0,1-26.616,36.95q-9.048,10.575-19.275,20.5c-52.583,51.147-126.831,89.12-204.186,110.877q-7.988,2.241-16.013,4.259-13.943,3.5-27.939,6.289-18.861,3.762-37.6,6.2a50.389,50.389,0,0,1,5.727-4.072c11.524-7.013,24.987-10.73,35.632-19.013-5.518-4.211-1.157-13,3.82-17.835a116.324,116.324,0,0,1,41.6-25.924c-2.5-19.522,18.932-37.92,37.849-32.5a20.154,20.154,0,0,1,39.425-5.363,63.076,63.076,0,0,1,5.69-19.747c2.587-5.443,10.683-5.026,12.59.7a.827.827,0,0,0,.037.113c6.274-12.622,26-15.558,35.675-5.3-3.375-12.568,11.765-25.683,23.723-20.551-5.738-8.422-7.287-20.186-1.876-28.822s18.558-12.07,26.434-5.6c-5.593-9.536,1.451-23.765,12.429-25.1,5.6-.681,11.159,1.478,16.806,1.623a15.335,15.335,0,0,0,8.288-2.218c6.246-3.949,14.416-3.359,19.4,2.095a40.449,40.449,0,0,1,7.752,12.986C917.774,659.352,920.459,657.884,923.1,656.448Z"/><path fill="#e6edfa" d="M413.067,410.655c-33.649-7.246-69.282-21.178-85.847-51.35-5.949-10.835-8.949-24.074-4.576-35.635,5.873-15.526,23.178-23.726,39.6-26.115a97.966,97.966,0,0,1,59.846,10.491c24.937,13.348,44.935,37.852,72.943,41.8,21.426,3.017,42.227-6.89,62.865-13.391s45.881-8.693,61.395,6.39c3.709,3.606,4.328,8.4,4.687,10.358,3.026,16.5-13.317,31.641-19.228,37.116-8.066,7.474-26.8,21.594-85.435,26.323C487.77,419.182,455.6,419.814,413.067,410.655Z"/><path fill="#dae8eb" d="M332.171,411.3H135.29a30.984,30.984,0,0,1,41.163-42.952,47.658,47.658,0,1,1,91.107,23.021C289.072,398.2,310.17,406.545,332.171,411.3Z"/><path fill="#d8dff3" d="M754.3,472.925H860.246A16.673,16.673,0,0,0,838.1,449.811,25.647,25.647,0,1,0,789.067,462.2C777.491,465.871,766.137,470.364,754.3,472.925Z"/><path fill="#dae8eb" d="M657.553,339H926.174a42.275,42.275,0,0,0-56.162-58.6,65.024,65.024,0,1,0-124.3,31.41C716.357,321.117,687.571,332.509,657.553,339Z"/><path fill="#687ed4" d="M627.2,847.86c-1.88.39-3.75.78-5.63,1.15h-.01c-1.57.32-3.14.62-4.71.92-1.12.21-2.24.43-3.36.63-1.35.25-2.71.5-4.06.73-.99.19-1.97.36-2.95.52q-1.875.33-3.75.63c-1.52.25-3.03.5-4.55.74l-.44.06c-1.47.23-2.94.45-4.4.67q-4.7.69-9.37,1.3-3,.39-5.98.74c-1.77.21-3.54.41-5.3.6-1,.12-2,.22-2.99.31q-1.17.135-2.34.24c-.96.1-1.92.19-2.87.27-1.28.13-2.57.24-3.85.34-.26.03-.52.05-.77.07-1.83.16-3.66.3-5.48.43-.1.01-.21.02-.31.02-1.7.12-3.4.24-5.1.34-.29.02-.58.04-.87.05-1.45.09-2.89.17-4.33.24-2.39.13-4.77.23-7.14.32q-9.03.33-18.39.33c-1.76,0-3.53-.01-5.3-.03-1.58-.01-3.18-.03-4.77-.07-.68-.01-1.36-.02-2.04-.04-1.41-.03-2.83-.07-4.26-.11a1.477,1.477,0,0,1-.21-.01c-1.87-.05-3.74-.12-5.62-.2q-5.145-.21-10.35-.51c-.2-.01-.4-.03-.59-.04-.59-.03-1.17-.07-1.76-.11-1.46-.09-2.93-.18-4.4-.29-1.35-.09-2.7-.19-4.06-.3q-3.435-.255-6.87-.57c-.75-.06-1.51-.13-2.26-.2-.88-.08-1.77-.17-2.66-.25-.66-.07-1.33-.13-1.99-.2q-5.94-.6-11.92-1.32c-1.75-.21-3.5-.42-5.25-.65-1.25-.16-2.5-.33-3.74-.5-.99-.13-1.97-.27-2.96-.41-3.69-.51-7.38-1.07-11.07-1.65a.037.037,0,0,1-.03-.01c-1.18-.18-2.36-.38-3.54-.57s-2.38-.4-3.58-.6c-1.15-.2-2.3-.4-3.45-.61q-3.525-.615-7.06-1.3c-1.15-.21-2.29-.43-3.43-.66-.92-.17-1.84-.35-2.75-.54v-.01l2-29.29v-.01l1.1-15.94h2.28l19.78-.01h.39l.46.01h.01l88.87-.02h.01l2.4-.01h1.41l16.21-.01h.02l1.63.01h.15l50.8-.01,8.95-.01h7.92l1.78.01,13.06-.01h.94v.03l1.9,18.27,1.89,18.25.01.08v.04l.17,1.71v.01Z"/><polygon fill="#4863c9" points="622.497 802.456 404.335 818.449 405.425 802.506 622.497 802.456"/><polygon fill="#4863c9" points="516.424 840.699 520.234 840.715 520.039 802.416 516.223 802.394 516.424 840.699"/><path fill="#4863c9" d="M524.575,829.233a12.941,12.941,0,0,0,9.378-3.4c7.511-7.182,4.159-23.049,4.014-23.721l-3.722.783c.031.144,3.046,14.449-2.934,20.16-2.641,2.522-6.872,3.014-12.574,1.462l-.964,3.693A26.547,26.547,0,0,0,524.575,829.233Z"/><path fill="#4863c9" d="M403.609,844.723a18.437,18.437,0,0,0,13.953-5.623c10.84-11.3,7.9-35.657,7.773-36.689l-3.817.426c.03.235,2.843,23.6-6.752,33.591-3.272,3.408-7.544,4.838-13.047,4.372l-.271,3.826C402.183,844.689,402.905,844.721,403.609,844.723Z"/><path fill="#4863c9" d="M622.3,841.159a16.186,16.186,0,0,0,3.355-.351l-.773-3.727a9.559,9.559,0,0,1-8.593-1.959c-9.246-7.8-8.795-32.451-8.789-32.7l-3.788-.114c-.024,1.09-.478,26.76,10.161,35.727A12.816,12.816,0,0,0,622.3,841.159Z"/><path fill="#9acedb" d="M720.886,651.75l-68.37,55.17-29.53-59.05V802.49H405.436V645.54l-33.41,53.61-67.6-61.38,67.82-109.56a55.741,55.741,0,0,1,47.42-26.41H607a55.731,55.731,0,0,1,43.49,20.87,55.168,55.168,0,0,1,5.63,8.5Z"/><path fill="#32477b" d="M571.4,402.877s4.749,22,.6,26.337S551.478,391.164,571.4,402.877Z"/><path fill="#ffc1c2" d="M509.643,377.03,565.829,393.8c22.712,92.05-17.475,91.479-17.475,91.479l1.337,14.272a30.045,30.045,0,0,1-31.258,32.817h0a30.044,30.044,0,0,1-28.672-31.357l2.762-61.754-10.776-.482h0A16.358,16.358,0,0,1,466.135,421.7h0q.039-.889.16-1.773A19.541,19.541,0,0,1,488.3,403.208l5.65.771Z"/><path fill="#32477b" d="M568.295,403.5c-.1.007-.177.007-.229.01-19.027,1.084-41.7-2.739-51.929-4.738a6.487,6.487,0,0,0-7.18,3.883c-2.689,6.233-7.213,11.829-10.782,15.638a2.845,2.845,0,0,1-4.909-2.118l.541-9.569a2.845,2.845,0,0,0-2.457-2.981l-3.044-.415A19.539,19.539,0,0,0,466.3,419.92c-.079.59-.129,1.18-.159,1.78-.01.25-.02.49-.02.74a16.363,16.363,0,0,0,15.63,16.33l10.78.48-1.17,26.05c-62.78-71.92-13.07-107.37-13.07-107.37-.115-6.1,5.029-7.895,9.71-8.274a16.432,16.432,0,0,1,9.31,2.224c9.931,5.544,26.406-5.864,43.73-10.24,6.627-1.674,31-7.831,41.285,3.039C596.3,359.454,581.377,402.652,568.295,403.5Z"/><path fill="#ed9c9c" d="M475.216,423.865c-.017-.055-1.567-5.561,1.18-8.785,1.826-2.14,5.234-2.918,10.141-2.316l.37-3.021c-5.992-.732-10.313.4-12.837,3.378-3.805,4.489-1.858,11.31-1.773,11.6Z"/><polygon fill="#ed9c9c" points="560.803 442.858 551.034 421.786 548.273 423.065 556.81 441.481 545.338 447.341 546.722 450.051 560.803 442.858"/><path fill="#32477b" d="M563.729,421.389c.208,2.147,1.4,3.793,2.648,3.674s2.1-1.971,1.889-4.117a5.931,5.931,0,0,0-.25-1.249,4.4,4.4,0,0,0-.818-1.62,21.86,21.86,0,0,0-2.8.03,3.922,3.922,0,0,0-.61,1.593A6.35,6.35,0,0,0,563.729,421.389Z"/><path fill="#32477b" d="M518.836,410.124a.857.857,0,0,1,.675-1.008l16.712-3.456a3.811,3.811,0,0,1,4.267,2.208l.342.789a2.436,2.436,0,0,1-2.4,3.408l-18.808-1.251A.858.858,0,0,1,518.836,410.124Z"/><path fill="#32477b" d="M573.479,407.978a.751.751,0,0,0-.676-.819l-14.878-1.454a3.339,3.339,0,0,0-3.511,2.321l-.227.719a2.131,2.131,0,0,0,2.406,2.744l16.266-2.842A.75.75,0,0,0,573.479,407.978Z"/><path fill="#ed9c9c" d="M549.709,499.732a51.25,51.25,0,0,1-30.834-15.777c9.041,3.471,29.479,1.319,29.479,1.319Z"/><path fill="#32477b" d="M645.809,326.683a22.023,22.023,0,0,0-14.718.052,4.18,4.18,0,0,0-2.326,5.921l.039.079a4.252,4.252,0,0,0,5.072,1.986,11.827,11.827,0,0,1,7.659,0c4.653,1.66,6.326,5.542,4.81,9.816-2.444,6.9-13.972,8.143-19.162,16.731a4.871,4.871,0,0,0-.706,2.536,4.936,4.936,0,0,0,3.294,4.666,4.855,4.855,0,0,0,5.856-2.078c4.81-8.392,17.41-8.836,21.031-19.018C660.134,337.584,655.246,330.029,645.809,326.683Zm-18.378,48.2a7.483,7.483,0,1,0,4.209,9.463A7.16,7.16,0,0,0,627.431,374.888Z"/><path fill="#32477b" d="M414.394,367.457a15.443,15.443,0,0,0-8.1,6.4,2.931,2.931,0,0,0,1.279,4.273l.056.027a2.982,2.982,0,0,0,3.657-1.1,8.29,8.29,0,0,1,4.226-3.314c3.285-1.1,5.888.32,6.9,3.334,1.638,4.865-4.184,10.539-3.331,17.522a3.4,3.4,0,0,0,.708,1.7,3.459,3.459,0,0,0,3.836,1.149,3.4,3.4,0,0,0,2.331-3.68c-.977-6.711,5.782-12.409,3.373-19.593C427.015,367.272,421.049,365.22,414.394,367.457ZM425.115,402a5.247,5.247,0,1,0,6.417,3.4A5.023,5.023,0,0,0,425.115,402Z"/><path fill="#ed9c9c" d="M550.768,463.98l.666-2.659a94.837,94.837,0,0,0-10.414-1.993,93.754,93.754,0,0,0-10.4-.806l-.06,2.739a91.408,91.408,0,0,1,20.208,2.719Z"/><path fill="#32477b" d="M554.985,419.774c.034,0,.069,0,.1,0l15.879-.707a1.084,1.084,0,1,0-.1-2.165l-15.879.707a1.083,1.083,0,0,0-.007,2.164Z"/><path fill="#32477b" d="M531.107,421.634c.209,2.147,1.4,3.793,2.648,3.674s2.1-1.971,1.89-4.117a5.93,5.93,0,0,0-.251-1.249,4.4,4.4,0,0,0-.818-1.62,21.86,21.86,0,0,0-2.8.03,3.921,3.921,0,0,0-.609,1.593A6.307,6.307,0,0,0,531.107,421.634Z"/><path fill="#32477b" d="M522.673,420.218c.034,0,.068,0,.1,0l15.879-.707a1.084,1.084,0,0,0-.1-2.165l-15.878.707a1.083,1.083,0,0,0-.007,2.164Z"/><polygon fill="#579fae" points="622.989 609.021 652.514 706.92 622.989 647.87 622.989 609.021"/><polygon fill="#579fae" points="405.435 609.021 372.025 699.151 405.435 645.539 405.435 609.021"/><rect width="2.418" height="48.95" x="621.78" y="598.92" fill="#579fae"/><rect width="2.418" height="48.95" x="404.226" y="598.92" fill="#579fae"/><path fill="#ffc1c2" d="M364.906,692.686l-20.161,26.9a24.512,24.512,0,0,1-38.088,1.41L178.405,573.934l40.944-36.395Z"/><path fill="#ffc1c2" d="M654.023,705.532l19.37,26.235a24.937,24.937,0,0,0,38.982,1.431l126.482-147.34L800.7,551.442Z"/><rect width="152.288" height="203.568" x="821.598" y="371.045" fill="#687ed4" rx="11.655" transform="rotate(36.542 897.737 472.824)"/><path fill="#4863c9" d="M887.236,577.187l-90.589-64.615c-3.489-2.489-3.7-6.882-.539-9.808A454.5,454.5,0,0,0,896.854,366.821c1.852-3.83,6.04-4.934,9.428-2.423l85.123,63.084a9.7,9.7,0,0,1,2.929,11.306,455.157,455.157,0,0,1-95.237,137.5A9.618,9.618,0,0,1,887.236,577.187Z"/><path fill="#fff" d="M885,570.687l-84.946-62.953c-3.388-2.51-3.55-6.837-.427-9.727a439.9,439.9,0,0,0,97.221-131.186c1.857-3.829,6.041-4.934,9.43-2.423l84.946,62.953a9.675,9.675,0,0,1,2.832,11.51,439.9,439.9,0,0,1-97.221,131.186A9.676,9.676,0,0,1,885,570.687Z"/><rect width="44.676" height="23.748" x="932.869" y="383.414" fill="#4863c9" rx="3.594" transform="rotate(36.542 955.202 395.284)"/><path fill="#4863c9" d="M968.553,448.907l-66.586-49.346a3.081,3.081,0,0,1-.423-4.5h0a3.081,3.081,0,0,1,4.432-.906L972.562,443.5a3.668,3.668,0,0,1,.978,4.915h0A3.667,3.667,0,0,1,968.553,448.907Z"/><path fill="#4863c9" d="M951.932,477.207l-66.586-49.346a3.08,3.08,0,0,1-.423-4.5h0a3.079,3.079,0,0,1,4.432-.906L955.941,471.8a3.668,3.668,0,0,1,.978,4.915h0A3.666,3.666,0,0,1,951.932,477.207Z"/><path fill="#4863c9" d="M932.5,503.425l-66.586-49.346a3.079,3.079,0,0,1-.423-4.5h0a3.079,3.079,0,0,1,4.432-.906l66.586,49.346a3.668,3.668,0,0,1,.978,4.916h0A3.666,3.666,0,0,1,932.5,503.425Z"/><path fill="#ffc1c2" d="M864.456,574.85c-8.684,7.566-20.414,16.129-30.252,17.446-18.16,2.43-35.528-34.778-35.528-34.778s-.109-9.476,5.922-27.031c1.65-4.8,3.759-10.207,6.455-16.19a6.5,6.5,0,0,1,7.342-3.668l13.839,3.094,3.946.876a3.589,3.589,0,0,1,.635.2,3.8,3.8,0,0,1,1.54,5.868c-1.716,2.133-4.677,4.278-9.747,4.907a24.819,24.819,0,0,1-3.463.193s.344,1.456.617,3.553c.543,4.333.755,11.4-3.222,13.749.006.012.013.024.025.024a.38.38,0,0,0,.078.066l31.926,24.294,3.415,2.6Z"/><polygon fill="#ed9c9c" points="712.278 644.332 663.093 717.816 654.023 705.532 712.278 644.332"/><polygon fill="#ed9c9c" points="311.314 635.563 358.075 701.799 364.906 692.686 311.314 635.563"/><rect width="13.698" height="131.808" x="184.584" y="439.867" fill="#9bcfdc" rx="5.515" transform="rotate(51.399 191.432 505.769)"/><rect width="23.892" height="91.032" x="163.554" y="472.975" fill="#32477b" rx="6.053" transform="rotate(51.399 175.5 518.489)"/><circle cx="263.076" cy="448.576" r="45.173" fill="#9bcfdc"/><circle cx="263.076" cy="448.576" r="37.082" fill="#32477b"/><path fill="#fff" d="M235.335,439.266a2.513,2.513,0,0,1-.335-2.587,30.823,30.823,0,0,1,38.5-16.635,2.514,2.514,0,1,1-1.674,4.742A25.792,25.792,0,0,0,239.6,438.711a2.516,2.516,0,0,1-4.264.555Z"/><path fill="#fff" d="M234.978,460.717c-.04-.05-.079-.1-.115-.154a17.969,17.969,0,0,1-2.389-14.547,2.515,2.515,0,0,1,4.806,1.481,12.823,12.823,0,0,0,1.737,10.232,2.514,2.514,0,0,1-4.039,2.988Z"/><path fill="#ffc1c2" d="M228.1,546.6l-6.513-6.357a9.677,9.677,0,0,1-2.782-5.3c-1.71-9.99-7.941-41.107-19.459-42.946l-4.662-4.67c-2.041-3.44-8.015-4.227-11.364-1.943-2.89,1.973-5.756,5.9-4.223,9.051l.136-.392s-13.629.152-15.043,7.742c0,0-11.975-1.5-13.7,8.589-1.644-.123-7.011-.323-10.625,3.337a11.856,11.856,0,0,0-2.478,4.056c-.61,1.816-1.967,7.972,18.844,33.249,5.24,6.363,7.941,9.621,11.936,13.331,4.749,4.41,6.867,5.47,10.759,9.94,1.717,1.972,11.194,10.645,11.194,10.645L200.958,598Z"/><rect width="2.497" height="6.466" x="191.645" y="513.301" fill="#e29474" transform="rotate(-31.394 192.898 516.54)"/><path fill="#ed9c9c" d="M194.785,532.46a8.3,8.3,0,0,1-2.668,1.853c-2.863,1.231-6.364.727-10.409-1.5l1.2-2.187c3.335,1.835,6.1,2.3,8.218,1.393,2.748-1.184,3.987-4.542,4.483-6.439l2.415.63A14.077,14.077,0,0,1,194.785,532.46Z"/><path fill="#ed9c9c" d="M201.762,533.327c-2.342-.88-4.386-3.207-6.078-6.913a40.065,40.065,0,0,1-2.316-6.814c-.509-1.981-.854-3.762-1.067-5.011l-7.7,4.383a15.264,15.264,0,0,1-9.206,2.772c-7.588-.382-12.4-7.073-12.606-7.358l-.771-1.091L198.7,490.933l1.3,2.131-34.307,20.919c1.56,1.73,5.131,5.031,9.829,5.268a12.939,12.939,0,0,0,7.778-2.4l10.971-6.258.231,1.86a58.239,58.239,0,0,0,1.287,6.535,37.691,37.691,0,0,0,2.168,6.392c1.408,3.086,2.984,4.974,4.686,5.615Z"/><path fill="#ed9c9c" d="M181.111,539.236a6.687,6.687,0,0,1-.768.676c-2.353,1.773-5.745,1.924-10.1.457a8.853,8.853,0,0,1-2.393,6.2c-2.1,2.018-5.361,2.579-9.695,1.668l.5-2.363c3.5.735,6.026.386,7.517-1.038,2.2-2.11,1.584-6,1.578-6.044l-.349-2.132,2,.818c4.366,1.793,7.559,1.964,9.492.508,2.35-1.766,2.315-5.671,2.262-6.688l-6.476-10.606,2.061-1.259,6.769,11.086.03.267C183.561,531.019,184.09,536.183,181.111,539.236Z"/><rect width="2.501" height="32.96" x="158.452" y="508.361" fill="#ed9c9c" transform="rotate(-33.079 159.702 524.84)"/><rect width="2.415" height="8.659" x="180.242" y="493.676" fill="#ed9c9c" transform="rotate(-31.421 181.453 498.011)"/><path fill="#fff" d="M519.866,543.571c-18.9,0-35.176-14.6-39.571-35.509L479.021,502l1.957-.411,1.274,6.057c4.2,19.973,19.666,33.921,37.613,33.921,15.97,0,30.506-11.482,36.171-28.572l3.817-11.515,1.9.629-3.818,11.514C552,531.538,536.7,543.571,519.866,543.571Z"/><path fill="#fff" d="M421.746,504.34a25.943,25.943,0,0,1-44.991,17.6,55.8,55.8,0,0,1,42.911-20.14h1.96C421.706,502.63,421.746,503.48,421.746,504.34Z"/><path fill="#fff" d="M650.486,522.67a25.944,25.944,0,0,1-44.29-18.33c0-.86.04-1.71.12-2.54H607A55.731,55.731,0,0,1,650.486,522.67Z"/><rect width="2.001" height="91.976" x="344.653" y="610.509" fill="#fff" transform="rotate(-45.82 345.652 656.496)"/><rect width="89.086" height="2" x="633.236" y="661.246" fill="#fff" transform="rotate(-43.655 677.778 662.245)"/><path fill="#579fae" d="M405.435,671.143l13.328,70.8a53.918,53.918,0,0,0,47.211,43.632L622.986,802.49H405.436Z"/><ellipse cx="574.527" cy="608.459" fill="#fff" rx="23.473" ry="16.074"/><ellipse cx="574.527" cy="608.459" fill="#9acedb" rx="16.473" ry="8.684"/></svg>